<?xml version="1.0" encoding="utf-8"?>
<!-- Generator: Adobe Illustrator 15.0.0, SVG Export Plug-In  -->
<!DOCTYPE svg PUBLIC "-//W3C//DTD SVG 1.1//EN" "http://www.w3.org/Graphics/SVG/1.1/DTD/svg11.dtd" [
	<!ENTITY ns_flows "http://ns.adobe.com/Flows/1.0/">
]>
<svg version="1.1"
	 xmlns="http://www.w3.org/2000/svg" xmlns:xlink="http://www.w3.org/1999/xlink" xmlns:a="http://ns.adobe.com/AdobeSVGViewerExtensions/3.0/"
	 x="0px" y="0px" width="512px" height="512px" viewBox="0.028 -25.597 512 512" enable-background="new 0.028 -25.597 512 512"
	 xml:space="preserve">
<defs>
</defs>
<path id="Shape_3_" fill="#006DF0" d="M296.288,23.521C288.097,8.989,272.71,0,256.028,0s-32.068,8.989-40.26,23.521L6.334,390.13
	c-8.389,14.493-8.45,32.351-0.159,46.9c8.29,14.549,23.683,23.602,40.428,23.773h418.85c16.745-0.172,32.139-9.225,40.429-23.773
	c8.29-14.55,8.229-32.407-0.159-46.9L296.288,23.521z M465.453,443.736H46.603c-10.658-0.177-20.424-5.992-25.659-15.278
	s-5.154-20.652,0.212-29.862L230.582,31.986c5.155-9.214,14.888-14.921,25.446-14.921c10.559,0,20.291,5.708,25.446,14.921
	l209.425,366.609c5.367,9.21,5.447,20.576,0.213,29.862S476.112,443.56,465.453,443.736L465.453,443.736z"/>
<path id="Shape_2_" fill="#006DF0" d="M332.828,204.803h-71.526l45.073-90.052c1.923-3.849,0.679-8.528-2.901-10.914l-51.2-34.133
	c-2.16-1.443-4.861-1.823-7.335-1.032c-2.475,0.791-4.455,2.666-5.379,5.094l-68.267,179.2c-0.997,2.616-0.647,5.555,0.937,7.864
	c1.583,2.309,4.199,3.694,6.999,3.706h63.855l-16.461,38.4l-17.067-11.375c-2.53-1.693-5.771-1.912-8.504-0.57
	c-2.734,1.34-4.546,4.035-4.756,7.072l-8.533,119.468c-0.243,3.399,1.56,6.617,4.586,8.185c3.026,1.568,6.695,1.185,9.332-0.975
	l93.866-76.8c2.408-1.969,3.555-5.092,2.992-8.15c-0.563-3.06-2.746-5.569-5.697-6.553l-15.719-5.239l63.113-110.396
	c1.525-2.643,1.524-5.899-0.004-8.541C338.702,206.421,335.88,204.797,332.828,204.803L332.828,204.803z M257.155,328.536
	c-1.27,2.221-1.476,4.893-0.564,7.281c0.913,2.389,2.849,4.242,5.274,5.05l10.905,3.636l-66.56,54.451l6.076-85.086l13.397,8.934
	c2.109,1.407,4.735,1.803,7.166,1.081c2.431-0.722,4.414-2.487,5.413-4.818l25.601-59.733c1.114-2.631,0.838-5.646-0.737-8.03
	c-1.575-2.385-4.239-3.823-7.097-3.831H191.61l60.049-157.636l36.036,24.021l-47.837,95.667c-1.322,2.646-1.18,5.788,0.376,8.303
	c1.556,2.516,4.303,4.046,7.261,4.045h70.63L257.155,328.536z"/>
</svg>
